<svg width="16" height="16" viewBox="0 0 16 16" fill="none" xmlns="http://www.w3.org/2000/svg">
<g id="Iconly/Bulk/Hide">
<g id="Hide">
<path id="Fill 1" opacity="0.4" fill-rule="evenodd" clip-rule="evenodd" d="M7.99366 2.58789H8.00016C8.93024 2.58789 9.83431 2.81105 10.6668 3.23045L8.49447 5.42328C8.33837 5.39702 8.16927 5.37733 8.00016 5.37733C6.56276 5.37733 5.39854 6.55218 5.39854 8.00269C5.39854 8.17334 5.41805 8.34398 5.44407 8.50151L3.03756 10.93C2.38715 10.1686 1.8213 9.24908 1.37252 8.19303C1.32049 8.07489 1.32049 7.93049 1.37252 7.80579C2.76439 4.53722 5.24244 2.58789 7.99366 2.58789ZM12.2863 4.36657C13.2294 5.23294 14.0294 6.40122 14.6278 7.80579C14.6798 7.93049 14.6798 8.07488 14.6278 8.19303C13.2359 11.4616 10.7579 13.4175 8.00016 13.4175H7.99366C6.73837 13.4175 5.53512 13.004 4.47496 12.2492L6.53675 10.1686C6.95301 10.4502 7.46033 10.6215 8.00016 10.6215C9.43106 10.6215 10.5953 9.44663 10.5953 8.00269C10.5953 7.45793 10.4262 6.94598 10.1465 6.52592L12.2863 4.36657Z" fill="#130F26"/>
<path id="Combined Shape" fill-rule="evenodd" clip-rule="evenodd" d="M12.2862 4.36651L13.47 3.17197C13.6651 2.98163 13.6651 2.66659 13.47 2.47625C13.2814 2.28591 12.9757 2.28591 12.7805 2.47625L12.1692 3.09321C12.1627 3.10634 12.1496 3.11946 12.1366 3.13259C12.1301 3.14572 12.1171 3.15884 12.1041 3.17197L11.5253 3.75677L9.46347 5.83736L2.48461 12.8792L2.46509 12.9055C2.33501 13.0958 2.36103 13.359 2.52363 13.5231C2.61469 13.6209 2.74477 13.6668 2.86835 13.6668C2.99192 13.6668 3.1155 13.6209 3.21306 13.5231L10.1464 6.52586L12.2862 4.36651ZM8.00012 9.63717C8.89118 9.63717 9.61963 8.90207 9.61963 8.00289C9.61963 7.72722 9.55459 7.46469 9.43752 7.24153L7.24565 9.4534C7.46679 9.57154 7.72695 9.63717 8.00012 9.63717Z" fill="#130F26"/>
</g>
</g>
</svg>
